<?xml version="1.0" encoding="iso-8859-1"?>
<!-- Generator: Adobe Illustrator 17.1.0, SVG Export Plug-In . SVG Version: 6.00 Build 0)  -->
<!DOCTYPE svg PUBLIC "-//W3C//DTD SVG 1.1//EN" "http://www.w3.org/Graphics/SVG/1.1/DTD/svg11.dtd">
<svg version="1.1" id="Capa_1" xmlns="http://www.w3.org/2000/svg" xmlns:xlink="http://www.w3.org/1999/xlink" x="0px" y="0px"
	 viewBox="0 0 511 511" style="enable-background:new 0 0 511 511;" xml:space="preserve">
<g>
	<path d="M179.037,303.211l88.27-126.677c3.98-5.711,4.784-11.82,2.206-16.76c-2.579-4.94-8.05-7.773-15.011-7.773h-57.66
		l9.926-80.292c1.196-8.048-0.695-13.124-5.62-15.087c-4.947-1.972-9.832,0.439-14.474,7.101l-78.98,110.744
		c-3.98,5.711-4.784,11.821-2.206,16.761c2.579,4.94,8.05,7.773,15.011,7.773h49.275l-10.884,96.333
		c-1.184,8.023,0.708,13.085,5.625,15.046c1.115,0.444,2.226,0.667,3.333,0.667C171.653,311.046,175.404,308.424,179.037,303.211z
		 M183.763,186.503c-1.423-1.593-3.458-2.503-5.593-2.503h-57.67c-0.413,0-0.766-0.022-1.063-0.057
		c0.133-0.247,0.302-0.527,0.517-0.834l70.074-98.258l-9.114,73.729c-0.264,2.133,0.4,4.277,1.824,5.887
		c1.423,1.61,3.47,2.533,5.619,2.533h66.145c0.411,0,0.763,0.022,1.059,0.056c-0.142,0.262-0.325,0.564-0.56,0.901l-79.516,114.115
		l10.138-89.73C185.862,190.22,185.186,188.096,183.763,186.503z"/>
	<path d="M463.5,96H447V55.5c0-4.142-3.358-7.5-7.5-7.5s-7.5,3.358-7.5,7.5V96h-17V55.5c0-4.142-3.358-7.5-7.5-7.5
		s-7.5,3.358-7.5,7.5V96h-16.5c-4.142,0-7.5,3.358-7.5,7.5s3.358,7.5,7.5,7.5h0.5v32.5c0,19.216,13.795,35.262,32,38.777V387.5
		c0,59.827-48.673,108.5-108.5,108.5c-28.331,0-55.137-10.853-75.481-30.559c-18.761-18.173-30.173-42.064-32.548-67.835
		C208.517,394.334,215,385.661,215,375.5V367h88.5c21.78,0,39.5-17.72,39.5-39.5v-288C343,17.72,325.28,0,303.5,0h-224
		C57.72,0,40,17.72,40,39.5v288c0,21.78,17.72,39.5,39.5,39.5H168v8.5c0,10.497,6.918,19.406,16.434,22.413
		c2.479,29.753,15.531,57.363,37.148,78.302C244.74,498.646,275.252,511,307.5,511c68.098,0,123.5-55.402,123.5-123.5V182.277
		c18.205-3.515,32-19.561,32-38.777V111h0.5c4.142,0,7.5-3.358,7.5-7.5S467.642,96,463.5,96z M55,327.5v-288
		C55,25.991,65.991,15,79.5,15h224c13.509,0,24.5,10.991,24.5,24.5v288c0,13.509-10.991,24.5-24.5,24.5h-224
		C65.991,352,55,341.009,55,327.5z M183,367h17v8.5c0,4.687-3.813,8.5-8.5,8.5s-8.5-3.813-8.5-8.5V367z M448,143.5
		c0,13.509-10.991,24.5-24.5,24.5S399,157.009,399,143.5V111h49V143.5z"/>
</g>
<g>
</g>
<g>
</g>
<g>
</g>
<g>
</g>
<g>
</g>
<g>
</g>
<g>
</g>
<g>
</g>
<g>
</g>
<g>
</g>
<g>
</g>
<g>
</g>
<g>
</g>
<g>
</g>
<g>
</g>
</svg>
